<?xml version="1.0" encoding="UTF-8" standalone="no"?>
<!-- Created with Inkscape (http://www.inkscape.org/) -->

<svg
   xmlns:osb="http://www.openswatchbook.org/uri/2009/osb"
   xmlns:dc="http://purl.org/dc/elements/1.1/"
   xmlns:cc="http://creativecommons.org/ns#"
   xmlns:rdf="http://www.w3.org/1999/02/22-rdf-syntax-ns#"
   xmlns:svg="http://www.w3.org/2000/svg"
   xmlns="http://www.w3.org/2000/svg"
   xmlns:sodipodi="http://sodipodi.sourceforge.net/DTD/sodipodi-0.dtd"
   xmlns:inkscape="http://www.inkscape.org/namespaces/inkscape"
   width="256"
   height="256"
   viewBox="0 0 67.733332 67.733335"
   version="1.1"
   id="svg821"
   sodipodi:docname="Lauburu_bleueV2.svg"
   inkscape:version="0.92.4 (5da689c313, 2019-01-14)">
  <defs
     id="defs815">
    <linearGradient
       id="linearGradient8132"
       osb:paint="solid">
      <stop
         style="stop-color:#a1d6e2;stop-opacity:1;"
         offset="0"
         id="stop8130" />
    </linearGradient>
  </defs>
  <sodipodi:namedview
     id="base"
     pagecolor="#ffffff"
     bordercolor="#666666"
     borderopacity="1.0"
     inkscape:pageopacity="0.0"
     inkscape:pageshadow="2"
     inkscape:zoom="11.2"
     inkscape:cx="99.463276"
     inkscape:cy="126.66237"
     inkscape:document-units="px"
     inkscape:current-layer="layer1"
     showgrid="true"
     units="px"
     inkscape:pagecheckerboard="true"
     inkscape:showpageshadow="false"
     borderlayer="true"
     inkscape:window-width="1920"
     inkscape:window-height="1017"
     inkscape:window-x="-8"
     inkscape:window-y="-8"
     inkscape:window-maximized="1">
    <inkscape:grid
       type="xygrid"
       id="grid1366" />
  </sodipodi:namedview>
  <metadata
     id="metadata818">
    <rdf:RDF>
      <cc:Work
         rdf:about="">
        <dc:format>image/svg+xml</dc:format>
        <dc:type
           rdf:resource="http://purl.org/dc/dcmitype/StillImage" />
        <dc:title></dc:title>
      </cc:Work>
    </rdf:RDF>
  </metadata>
  <g
     inkscape:label="Calque 1"
     inkscape:groupmode="layer"
     id="layer1"
     transform="translate(0,-229.26665)">
    <path
       inkscape:connector-curvature="0"
       id="path1098-5"
       style="display:inline;fill:#a1d6e2;fill-opacity:1;fill-rule:evenodd;stroke:#000000;stroke-width:0.04087108;stroke-linecap:round;stroke-linejoin:round;stroke-opacity:1"
       d="m 21.166659,263.6979 a 6.084778,6.274552 0 0 1 12.169556,10e-4 3.0423879,3.1372749 0 0 0 -6.084775,-0.002 l -5e-6,0.002 v 0.001 a 3.042388,3.137275 0 0 1 -6.084776,6.7e-4 z" />
    <path
       inkscape:connector-curvature="0"
       id="path1098-5-5"
       style="display:inline;fill:#a1d6e2;fill-opacity:1;fill-rule:evenodd;stroke:#000000;stroke-width:0.04087108;stroke-linecap:round;stroke-linejoin:round;stroke-opacity:1"
       d="m 33.357123,251.81261 a 6.2745541,6.08478 0 0 1 -0.001,12.16956 3.1372772,3.0423902 0 0 0 0.002,-6.08478 h -0.002 -10e-4 a 3.1372771,3.04239 0 0 1 -6.7e-4,-6.08478 z" />
    <path
       inkscape:connector-curvature="0"
       id="path1098-5-7"
       style="display:inline;fill:#a1d6e2;fill-opacity:1;fill-rule:evenodd;stroke:#000000;stroke-width:0.04087108;stroke-linecap:round;stroke-linejoin:round;stroke-opacity:1"
       d="m 33.31656,275.8885 a 6.2745541,6.08478 0 0 1 10e-4,-12.16956 3.1372772,3.0423902 0 0 0 -0.002,6.08478 h 0.002 10e-4 a 3.1372771,3.04239 0 0 1 6.7e-4,6.08478 z" />
    <path
       inkscape:connector-curvature="0"
       id="path1098-5-0"
       style="display:inline;fill:#a1d6e2;fill-opacity:1;fill-rule:evenodd;stroke:#000000;stroke-width:0.04087108;stroke-linecap:round;stroke-linejoin:round;stroke-opacity:1"
       d="m 45.507045,263.73856 a 6.08478,6.2745541 0 0 1 -12.16956,-0.001 3.0423902,3.1372772 0 0 0 6.08478,0.002 v -0.002 -10e-4 a 3.04239,3.1372771 0 0 1 6.08478,-6.7e-4 z" />
  </g>
</svg>
